<svg width="54" height="56" viewBox="0 0 54 56" fill="none" xmlns="http://www.w3.org/2000/svg">
<rect x="1" y="1" width="52" height="54" rx="26" stroke="#5A7184" stroke-width="2"/>
<path d="M32.192 27.9688C31.8795 27.6562 31.4107 27.6875 31.0982 27.9688L27.5357 31.75V22.75C27.5357 22.3438 27.192 22 26.7857 22H25.7857C25.3482 22 25.0357 22.3438 25.0357 22.75V31.75L21.442 27.9688C21.1295 27.6875 20.6607 27.6562 20.3482 27.9688L19.6607 28.6562C19.3795 28.9375 19.3795 29.4375 19.6607 29.7188L25.7545 35.7812C26.0357 36.0938 26.5045 36.0938 26.817 35.7812L32.8795 29.7188C33.1607 29.4375 33.1607 28.9688 32.8795 28.6562L32.192 27.9688Z" fill="#5A7184"/>
</svg>
